<?xml version="1.0" encoding="utf-8"?>
<!-- Generator: Adobe Illustrator 17.0.0, SVG Export Plug-In . SVG Version: 6.00 Build 0)  -->
<!DOCTYPE svg PUBLIC "-//W3C//DTD SVG 1.1//EN" "http://www.w3.org/Graphics/SVG/1.1/DTD/svg11.dtd">
<svg version="1.1" id="Layer_1" xmlns="http://www.w3.org/2000/svg" xmlns:xlink="http://www.w3.org/1999/xlink" x="0px" y="0px"
	 width="840.3px" height="55.1px" viewBox="208.4 478.2 840.3 55.1" enable-background="new 208.4 478.2 840.3 55.1"
	 xml:space="preserve">
<g id="Layer_4">
	<g>
		<path d="M260.6,505.6c0,16.1-11.8,27.1-29.4,27.1h-22.8v-54.2h23.3C248.9,478.6,260.6,489.6,260.6,505.6z M246.2,505.8
			c0-9.4-6.1-15.7-14.7-15.7h-8.9v31.2h9.6C240.4,521.3,246.2,515.1,246.2,505.8z"/>
		<path d="M312.7,478.6v54.2h-14.1v-54.2L312.7,478.6L312.7,478.6z"/>
		<path d="M390.2,523.2h-23.4l-3.8,9.6h-14.5l23.3-54.2h14.5l22.7,54.2h-15.1L390.2,523.2z M386,512.3l-7.4-19.3l-7.6,19.3H386z"/>
		<path d="M457.2,478.6l24.6,32.6v-32.6h13.1v54.2h-12.4L458,500.3v32.5h-13.2v-54.2L457.2,478.6L457.2,478.6z"/>
		<path d="M572.5,523.2h-23.4l-3.8,9.6h-14.5l23.3-54.2h14.5l22.7,54.2h-15.1L572.5,523.2z M568.3,512.3l-7.4-19.3l-7.6,19.3H568.3z
			"/>
		<path d="M695.3,478.6v54.2h-14.1v-54.2L695.3,478.6L695.3,478.6z"/>
		<path d="M750.8,478.6v42.1h22.9v12.1h-37.1v-54.2L750.8,478.6L750.8,478.6z"/>
		<path d="M847.4,523.2H824l-3.8,9.6h-14.5l23.3-54.2h14.5l22.7,54.2h-15.1L847.4,523.2z M843.3,512.3l-7.4-19.3l-7.6,19.3H843.3z"
			/>
		<path d="M914.4,478.6l24.6,32.6v-32.6h13.1v54.2h-12.4l-24.6-32.5v32.5H902v-54.2L914.4,478.6L914.4,478.6z"/>
		<path d="M1048.7,505.6c0,15.8-12.5,27.7-29.3,27.7s-29.3-11.9-29.3-27.7s12.5-27.4,29.3-27.4S1048.7,489.9,1048.7,505.6z
			 M1004.7,505.7c0,8.8,6.9,15.6,14.9,15.6c8.1,0,14.6-6.8,14.6-15.6c0-8.8-6.5-15.5-14.6-15.5
			C1011.5,490.2,1004.7,496.9,1004.7,505.7z"/>
	</g>
</g>
</svg>
